<svg width="103" height="84" viewBox="0 0 103 84" fill="none" xmlns="http://www.w3.org/2000/svg">
<path d="M4.72053 46.4465C7.57563 44.4315 15.3941 40.749 27.5512 41.1017C28.4864 41.0433 29.6331 42.4735 27.2932 44.0003C30.8023 42.1924 28.5601 39.6745 26.519 39.5009C28.698 36.6211 36.1806 32.8804 37.5845 32.7054C37.3021 33.4923 38.1887 36.2376 40.9185 36.5282C38.573 35.8926 37.311 31.2811 41.2161 28.6686C39.5144 30.2646 39.6766 32.0346 39.8656 31.972C40.1948 31.8619 40.521 31.7517 40.8828 31.6631C40.2766 32.6356 40.211 34.3861 42.1241 35.6355C40.115 33.1748 42.9802 29.1461 44.8218 28.0761C43.9523 28.9283 43.3749 30.0336 43.1724 31.2338C43.6795 30.9361 45.5621 30.6993 46.4966 30.5641C46.5719 30.8221 46.7085 31.0581 46.8949 31.2519C47.0812 31.4458 47.3117 31.5917 47.5667 31.6773C46.717 30.325 47.627 29.2891 48.4119 29.1176C48.6923 29.0364 48.9901 29.0364 49.2706 29.1177C49.551 29.199 49.8027 29.3581 49.9962 29.5766C50.1897 29.7951 50.3171 30.064 50.3637 30.352C50.4103 30.64 50.374 30.9352 50.2592 31.2033C50.5313 31.059 50.7361 30.8139 50.8297 30.5206C50.9233 30.2273 50.8983 29.909 50.7601 29.6338C61.7273 30.1669 74.8653 27.9011 86.0793 26.1832C76.448 27.255 62.8098 27.9668 54.8066 27.4535C51.523 26.8217 49.3186 25.4931 47.1014 24.494C43.9005 23.0494 39.3329 22.8379 36.2531 24.4229C37.9051 23.217 39.8747 22.521 41.9185 22.4209C41.2422 17.0984 40.0276 12.3986 37.4936 7.67913C36.9166 23.3435 20.7763 29.3371 16.961 39.2176C18.7923 36.9266 22.912 31.7339 27.0606 29.2317C23.551 31.9984 20.5669 35.3719 18.2503 39.1918C21.8273 35.1 26.3017 30.4658 31.5606 27.8315C27.6909 30.2959 21.6528 35.6984 20.3079 39.037C22.7884 35.4267 29.9804 29.921 36.9739 27.5884C31.7961 29.2931 23.6029 35.6758 21.9478 39.1461C22.9688 39.0846 23.9935 39.1309 25.0049 39.2843C18.0839 39.7891 9.10547 42.4011 4.72069 46.4476" fill="black"/>
<path d="M49.1568 30.985C49.2303 31.0255 49.2951 31.0802 49.3476 31.1457C49.3331 30.9675 49.2751 30.7955 49.1786 30.6448C49.0821 30.4942 48.9501 30.3694 48.7942 30.2815C48.6744 30.2156 48.5423 30.1749 48.4062 30.162C48.2701 30.149 48.1327 30.1641 48.0027 30.2063C47.8727 30.2485 47.7527 30.3169 47.6502 30.4072C47.5476 30.4976 47.4648 30.608 47.4067 30.7316C47.2811 30.9852 47.257 31.277 47.3391 31.5478C47.4213 31.8186 47.6036 32.048 47.8489 32.1894C47.9881 32.267 48.144 32.3098 48.3033 32.3142C48.4626 32.3187 48.6207 32.2846 48.7639 32.2149C48.6986 32.2025 48.6355 32.1802 48.5769 32.1488C48.4269 32.0628 48.3153 31.923 48.2648 31.7577C48.2143 31.5925 48.2288 31.4142 48.3054 31.2593C48.3409 31.1835 48.3916 31.1159 48.4544 31.0606C48.5172 31.0052 48.5908 30.9634 48.6705 30.9377C48.7502 30.912 48.8343 30.9029 48.9177 30.9111C49.001 30.9193 49.0818 30.9445 49.155 30.9852" fill="black"/>
<path d="M26.1133 43.3735C21.2092 42.2409 12.2446 43.5764 9.74507 45.2496C13.6089 43.811 17.9817 44.0687 20.6295 44.1619C19.4646 44.2643 18.3365 44.6208 17.3248 45.2061C16.3227 52.4813 19.864 60.0696 24.5712 62.911C18.8832 56.7311 17.316 48.1621 26.1133 43.3735Z" fill="black"/>
<path d="M56.7183 36.0641C67.5674 30.3803 85.0131 30.054 95.6756 24.9787C87.6648 28.4588 66.9601 28.581 53.2529 33.6874C51.047 34.5094 48.115 36.3043 47.6119 38.4099C48.7079 37.0196 49.7528 36.7359 49.9196 36.9576C50.2015 39.422 58.3309 41.0946 60.7415 41.1825C56.4559 42.2561 49.6243 40.5402 47.0957 39.2675C45.6753 38.5509 44.9931 37.7948 45.1764 36.0169C43.8767 39.6029 47.5945 40.8559 50.223 41.292C46.2161 43.2581 39.9944 44.6442 39.619 38.0367C39.1009 38.4904 38.9104 40.9346 39.7767 42.0389C33.8898 42.7715 24.5441 46.1161 24.6586 57.6673C25.4962 46.0692 35.5541 44.1766 37.0478 44.3923C29.8154 45.7419 24.1726 53.3821 25.5393 60.3308C25.1411 53.9803 29.1053 49.8134 30.0523 49.3654C27.1103 53.0039 25.0072 58.2162 26.2965 62.4286C26.5714 65.8971 28.156 68.4247 30.9445 70.528C30.1096 69.2524 29.5136 66.8486 29.846 65.4941C29.239 65.246 28.079 64.1715 27.9795 63.1765C28.5339 64.6257 31.7928 65.6606 33.8 65.5032C37.0937 68.8798 37.8483 73.9701 48.9757 78.0226C44.3119 75.1841 39.4981 69.3059 39.0204 64.6757C38.7847 64.7267 38.5703 64.8484 38.4057 65.0245C38.5183 64.2319 38.7965 63.4719 39.2222 62.7939C38.8088 63.0865 38.4637 63.4649 38.2103 63.9032C38.4725 62.7378 38.906 61.6177 39.4967 60.5794C38.9458 61.1752 38.4973 61.8579 38.1692 62.5999C38.2725 61.8084 39.3414 59.8064 40.0706 58.5651C39.3876 59.1384 38.8036 59.8199 38.3418 60.5826C39.0723 58.6244 40.4768 56.1469 42.3386 54.7452C40.9208 55.4964 39.7486 56.6381 38.9608 58.0352C39.9449 55.8778 41.6693 54.1442 43.8223 53.1479C36.8183 54.2352 35.3464 62.81 33.6136 62.5863C29.8012 61.9017 30.0295 58.2136 31.3917 55.2005C32.8331 52.0101 36.2617 48.9793 39.4867 48.1448C43.285 48.8515 46.1813 50.4681 48.5206 51.662C47.2983 49.4991 46.2078 48.6996 42.4432 45.7713C47.0712 44.8202 48.5188 42.9167 51.6412 41.9551C53.7396 42.3903 59.2817 43.0457 62.9067 40.8651C61.4385 40.9772 58.1534 40.3779 56.9489 39.2985C55.7662 38.2397 55.5712 36.668 56.7149 36.061" fill="black"/>
</svg>
